<svg xmlns="http://www.w3.org/2000/svg" version="1.1" xmlns:xlink="http://www.w3.org/1999/xlink" width="1000" height="1000"><g clip-path="url(#SvgjsClipPath1383)"><rect width="1000" height="1000" fill="#343434"></rect><g transform="matrix(1.3461538461538463,0,0,1.3461538461538463,246.9230769230769,150)"><svg xmlns="http://www.w3.org/2000/svg" version="1.1" xmlns:xlink="http://www.w3.org/1999/xlink" width="376" height="520"><svg width="376" height="520" viewBox="0 0 376 520" fill="none" xmlns="http://www.w3.org/2000/svg">
<g clip-path="url(#clip0_878_17)">
<path d="M376.389 430.02H316.969V246.81C316.969 175.84 259.199 118.07 188.229 118.07C117.259 118.07 59.4886 175.84 59.4886 246.81C59.4886 317.78 117.259 375.55 188.229 375.55C190.149 375.55 192.059 375.5 193.979 375.42L146.559 321.48C135.499 308.9 136.729 289.74 149.299 278.68C161.879 267.62 181.039 268.85 192.099 281.43L295.169 398.67L193.609 510.51C182.349 522.91 163.169 523.83 150.769 512.57C138.369 501.31 137.449 482.13 148.709 469.73L180.429 434.79C80.3086 430.69 0.0585938 347.9 0.0585938 246.8C0.0585938 145.7 84.4986 58.6399 188.219 58.6399C238.429 58.6399 284.129 78.4299 317.909 110.62L316.969 58.6399H376.389V430.01V430.02Z" fill="#ECF247"></path>
</g>
<defs>
<clipPath id="clip0_878_17">
<rect width="376" height="520" fill="white"></rect>
</clipPath>
<clipPath id="SvgjsClipPath1383"><rect width="1000" height="1000" x="0" y="0" rx="500" ry="500"></rect></clipPath></defs>
</svg></svg></g></g></svg>